<svg width="162" height="101" viewBox="0 0 162 101" fill="none" xmlns="http://www.w3.org/2000/svg">
<rect x="1.5" y="1" width="78.5767" height="78.6611" rx="3.5" fill="#E5ECFF" stroke="#91A3DB"/>
<rect x="38.749" y="38.2881" width="41.328" height="41.3729" rx="2.5" fill="#7A8FCD" stroke="#91A3DB"/>
<rect x="87.0029" y="24.7285" width="54.873" height="54.9322" rx="3.5" fill="#E5ECFF" stroke="#91A3DB"/>
<rect x="124.251" y="1" width="36.2486" height="36.2882" rx="2.5" fill="#7A8FCD" stroke="#91A3DB"/>
<path d="M24.2558 53.9613L20.8825 49.7753C20.484 49.2808 19.7315 49.2782 19.3296 49.7699L15.8968 53.9697C15.3624 54.6234 15.8287 55.6042 16.6731 55.6025L23.4792 55.5887C24.3184 55.587 24.7824 54.6147 24.2558 53.9613Z" fill="#F89C8C" stroke="#91A3DB"/>
<path d="M111.818 16.1471L116.019 12.7952C116.515 12.3997 116.522 11.6484 116.033 11.2437L111.859 7.78349C111.208 7.24435 110.224 7.70477 110.221 8.5496L110.195 15.3617C110.192 16.2014 111.162 16.6709 111.818 16.1471Z" fill="#F89C8C" stroke="#91A3DB"/>
<rect x="-0.498989" y="0.501011" width="10.7831" height="3.2328" rx="0.5" transform="matrix(0.00202045 0.999998 -0.999998 0.00202474 22.1827 57.5127)" fill="#F89C8C" stroke="#91A3DB"/>
<rect x="-0.498104" y="-0.501893" width="10.8036" height="3.23729" rx="0.5" transform="matrix(-0.999993 -0.00379343 0.0037854 -0.999993 108.317 13.051)" fill="#F89C8C" stroke="#91A3DB"/>
<path d="M12.5812 82.7031H3C1.89543 82.7031 1 83.5986 1 84.7031V95.3041C1 97.135 3.25612 98.0035 4.48378 96.6452L14.065 86.0442C15.2274 84.7581 14.3148 82.7031 12.5812 82.7031Z" fill="#E5ECFF" stroke="#91A3DB"/>
<path d="M161 48.0834V40.4824C161 39.9301 160.553 39.4824 160 39.4824H152.408C151.517 39.4824 151.071 40.559 151.7 41.1892L159.293 48.7901C159.923 49.4206 161 48.9745 161 48.0834Z" fill="#7A8FCD" stroke="#91A3DB"/>
</svg>
