<svg width="52" height="53" viewBox="0 0 52 53" fill="none" xmlns="http://www.w3.org/2000/svg">
<rect x="0.433333" y="0.476058" width="51.1333" height="51.1333" rx="3.9" fill="white"/>
<path d="M8.66797 42.6339H18.1126L8.66797 33.1892V42.6339Z" fill="#B5C1E3"/>
<path d="M20.4219 42.6359H29.8665L20.4219 27.4272V42.6359Z" fill="#B5C1E3"/>
<path d="M32.9023 42.6377H42.347L32.9023 20.5886V42.6377Z" fill="#B5C1E3"/>
<path d="M18.8314 33.1899H9.38672L18.8314 42.6346V33.1899Z" fill="#B1C3FB"/>
<path d="M30.5853 27.426H21.1406L30.5853 42.6346V27.426Z" fill="#B5C1E3"/>
<path d="M43.0619 20.5852H33.6172L43.0619 42.6343V20.5852Z" fill="#B5C1E3"/>
<path d="M11.0938 23.93L20.5035 17.9673L19.8897 20.7045L12.1925 25.6639L11.0938 23.93Z" fill="#FABDB2"/>
<path d="M29.9409 14.3763L20.5312 20.3392L21.145 17.6019L28.8422 12.6426L29.9409 14.3763Z" fill="#FABDB2"/>
<path d="M24.6055 10.9137L24.9399 9.57593L32.7436 11.3596L30.96 19.1634L29.7336 18.829L31.1829 12.363L24.6055 10.9137Z" fill="#FABDB2" stroke="#FABDB2" stroke-width="0.433333"/>
<path d="M30.3579 12.9349L28.8372 12.6431L28.75 13.2388L28.9165 14.3682H29.9372L30.3579 12.9349Z" fill="#FABDB2"/>
<rect x="0.433333" y="0.476058" width="51.1333" height="51.1333" rx="3.9" stroke="#DFE7FF" stroke-width="0.866667"/>
</svg>
