<svg width="198" height="97" viewBox="0 0 198 97" fill="none" xmlns="http://www.w3.org/2000/svg">
<path d="M101.228 4C101.228 2.067 102.795 0.5 104.728 0.5H193.5C195.433 0.5 197 2.067 197 4V93C197 94.933 195.433 96.5 193.5 96.5H104.728C102.795 96.5 101.228 94.933 101.228 93V4Z" fill="#E5ECFF" stroke="#91A3DB"/>
<path d="M1 4C1 2.067 2.567 0.5 4.5 0.5H93.272C95.205 0.5 96.772 2.067 96.772 4V93C96.772 94.933 95.205 96.5 93.272 96.5H4.5C2.567 96.5 1 94.933 1 93V4Z" fill="#7A8FCD" stroke="#91A3DB"/>
<path d="M113.294 50.8098H101.728C101.175 50.8098 100.728 50.362 100.728 49.8098V38.2161C100.728 37.3246 101.806 36.8787 102.435 37.5098L114.002 49.1035C114.631 49.7338 114.184 50.8098 113.294 50.8098Z" fill="#7A8FCD" stroke="#91A3DB"/>
<path d="M84.706 50.8098H96.2725C96.8247 50.8098 97.2725 50.362 97.2725 49.8098V38.2161C97.2725 37.3246 96.1941 36.8787 95.5645 37.5098L83.9981 49.1035C83.3693 49.7338 83.8157 50.8098 84.706 50.8098Z" fill="#E5ECFF" stroke="#91A3DB"/>
<path d="M105.201 49.1865L99.8577 42.5473C99.4592 42.0522 98.7059 42.0496 98.304 42.5419L92.8664 49.203C92.3326 49.8568 92.799 50.8371 93.6431 50.8354L104.424 50.8135C105.263 50.8118 105.727 49.8401 105.201 49.1865Z" fill="#F89C8C" stroke="#91A3DB"/>
<rect x="-0.49899" y="0.501013" width="15.0559" height="4.76024" rx="0.5" transform="matrix(0.00201784 0.999998 -0.999998 0.00202736 101.904 54.2285)" fill="#F89C8C" stroke="#91A3DB"/>
</svg>
