<svg width="53" height="53" viewBox="0 0 53 53" fill="none" xmlns="http://www.w3.org/2000/svg">
<rect x="1.29271" y="1.38597" width="51.1333" height="51.1333" rx="3.9" fill="white"/>
<rect x="1.29271" y="1.38597" width="51.1333" height="51.1333" rx="3.9" stroke="#DFE7FF" stroke-width="0.866667"/>
<path d="M27.8209 25.8028L15.5377 15.7061C14.7307 15.0427 13.5156 15.6168 13.5156 16.6614V36.8549C13.5156 37.8996 14.7307 38.4737 15.5377 37.8103L27.8209 27.7136C28.4228 27.2188 28.4228 26.2975 27.8209 25.8028Z" fill="#98A8DD"/>
<path d="M43.9654 25.8028L31.6823 15.7061C30.8752 15.0427 29.6602 15.6168 29.6602 16.6614V36.8549C29.6602 37.8996 30.8752 38.4737 31.6823 37.8103L43.9654 27.7136C44.5673 27.2188 44.5673 26.2975 43.9654 25.8028Z" fill="#FABDB2"/>
</svg>
