<svg width="53" height="53" viewBox="0 0 53 53" fill="none" xmlns="http://www.w3.org/2000/svg">
<rect x="1.29271" y="0.707015" width="51.1333" height="51.1333" rx="3.9" fill="white"/>
<rect x="1.29271" y="0.707015" width="51.1333" height="51.1333" rx="3.9" stroke="#DFE7FF" stroke-width="0.866667"/>
<path fill-rule="evenodd" clip-rule="evenodd" d="M46.4713 34.567C47.0181 34.567 47.4639 34.1235 47.4363 33.5774C47.1919 28.7452 45.1647 24.1607 41.7269 20.7229C41.4382 20.4343 41.1415 20.1555 40.8371 19.8869C40.4581 19.5524 39.8868 19.5851 39.5293 19.9426L35.0769 24.395C34.6379 24.8339 34.709 25.5628 35.1824 25.9645C35.416 26.1627 35.6423 26.3711 35.8605 26.5893C37.742 28.4708 38.8903 30.9484 39.1216 33.5782C39.1695 34.1228 39.6082 34.567 40.155 34.567H46.4713ZM32.2596 24.1684C32.6516 24.3334 33.1093 24.2625 33.41 23.9617L38.1103 19.2614C38.5484 18.8233 38.4815 18.0937 37.9502 17.7751C34.9338 15.9668 31.4587 14.9885 27.8828 14.9885C24.2246 14.9885 20.6719 16.0123 17.6079 17.9013C17.0846 18.2239 17.0226 18.9472 17.4573 19.382L22.1335 24.0582C22.4397 24.3643 22.9076 24.4319 23.3033 24.2561C24.7316 23.6218 26.2899 23.2849 27.8828 23.2849C29.4008 23.2849 30.8871 23.5908 32.2596 24.1684ZM14.0387 20.7229C14.2713 20.4904 14.5091 20.2643 14.7519 20.0447C15.1302 19.7027 15.7076 19.7324 16.0682 20.0929L20.5181 24.5429C20.9514 24.9761 20.8885 25.6934 20.4286 26.0982C20.2495 26.2558 20.0749 26.4196 19.9052 26.5893C18.0237 28.4708 16.8754 30.9484 16.6441 33.5782C16.5962 34.1228 16.1575 34.567 15.6107 34.567H9.29433C8.7476 34.567 8.30173 34.1234 8.32934 33.5774C8.57372 28.7452 10.601 24.1607 14.0387 20.7229Z" fill="#98A8DD"/>
<mask id="mask0_6293_6678" style="mask-type:luminance" maskUnits="userSpaceOnUse" x="8" y="14" width="40" height="21">
<path fill-rule="evenodd" clip-rule="evenodd" d="M46.4713 34.567C47.0181 34.567 47.4639 34.1235 47.4363 33.5774C47.1919 28.7452 45.1647 24.1607 41.7269 20.7229C41.4382 20.4343 41.1415 20.1555 40.8371 19.8869C40.4581 19.5524 39.8868 19.5851 39.5293 19.9426L35.0769 24.395C34.6379 24.8339 34.709 25.5628 35.1824 25.9645C35.416 26.1627 35.6423 26.3711 35.8605 26.5893C37.742 28.4708 38.8903 30.9484 39.1216 33.5782C39.1695 34.1228 39.6082 34.567 40.155 34.567H46.4713ZM32.2596 24.1684C32.6516 24.3334 33.1093 24.2625 33.41 23.9617L38.1103 19.2614C38.5484 18.8233 38.4815 18.0937 37.9502 17.7751C34.9338 15.9668 31.4587 14.9885 27.8828 14.9885C24.2246 14.9885 20.6719 16.0123 17.6079 17.9013C17.0846 18.2239 17.0226 18.9472 17.4573 19.382L22.1335 24.0582C22.4397 24.3643 22.9076 24.4319 23.3033 24.2561C24.7316 23.6218 26.2899 23.2849 27.8828 23.2849C29.4008 23.2849 30.8871 23.5908 32.2596 24.1684ZM14.0387 20.7229C14.2713 20.4904 14.5091 20.2643 14.7519 20.0447C15.1302 19.7027 15.7076 19.7324 16.0682 20.0929L20.5181 24.5429C20.9514 24.9761 20.8885 25.6934 20.4286 26.0982C20.2495 26.2558 20.0749 26.4196 19.9052 26.5893C18.0237 28.4708 16.8754 30.9484 16.6441 33.5782C16.5962 34.1228 16.1575 34.567 15.6107 34.567H9.29433C8.7476 34.567 8.30173 34.1234 8.32934 33.5774C8.57372 28.7452 10.601 24.1607 14.0387 20.7229Z" fill="white"/>
</mask>
<g mask="url(#mask0_6293_6678)">
<path d="M41.0287 21.4228C44.2926 24.6866 46.2174 29.0394 46.4494 33.6272L48.4269 33.5272C48.1701 28.4506 46.0404 23.6343 42.4288 20.0227L41.0287 21.4228ZM40.1839 20.629C40.4728 20.884 40.7546 21.1487 41.0287 21.4228L42.4288 20.0227C42.1255 19.7194 41.8138 19.4266 41.494 19.1444L40.1839 20.629ZM35.7788 25.0948L40.2311 20.6424L38.831 19.2424L34.3787 23.6946L35.7788 25.0948ZM36.5624 25.8891C36.325 25.6517 36.0789 25.425 35.8248 25.2094L34.5436 26.7191C34.7567 26.9 34.9632 27.09 35.1623 27.2892L36.5624 25.8891ZM40.1096 33.4912C39.858 30.6306 38.609 27.9357 36.5624 25.8891L35.1623 27.2892C36.8786 29.0055 37.9262 31.2657 38.1372 33.6647L40.1096 33.4912ZM46.4731 33.5768H40.1568V35.5568H46.4731V33.5768ZM37.4121 18.5611L32.7118 23.2615L34.1119 24.6615L38.8122 19.9612L37.4121 18.5611ZM27.8847 15.9783C31.2797 15.9783 34.579 16.9071 37.4429 18.624L38.461 16.9258C35.2921 15.026 31.6414 13.9983 27.8847 13.9983V15.9783ZM18.1292 18.7438C21.0384 16.9503 24.4114 15.9783 27.8847 15.9783V13.9983C24.0414 13.9983 20.3091 15.0739 17.0902 17.0583L18.1292 18.7438ZM22.8354 23.3578L18.1592 18.6817L16.7591 20.0818L21.4353 24.758L22.8354 23.3578ZM27.8847 22.2947C26.1519 22.2947 24.4568 22.6611 22.9033 23.3511L23.707 25.1607C25.0099 24.582 26.4315 24.2747 27.8847 24.2747V22.2947ZM32.6455 23.2557C31.1526 22.6274 29.5357 22.2947 27.8847 22.2947V24.2747C29.2694 24.2747 30.6253 24.5537 31.8773 25.0807L32.6455 23.2557ZM14.0897 19.3102C13.8347 19.5408 13.5848 19.7783 13.3405 20.0227L14.7406 21.4228C14.9615 21.2019 15.1872 20.9873 15.4177 20.7788L14.0897 19.3102ZM21.22 23.8426L16.7701 19.3927L15.37 20.7928L19.8199 25.2427L21.22 23.8426ZM20.607 27.2892C20.7618 27.1343 20.9211 26.9849 21.0845 26.8411L19.7762 25.3548C19.5814 25.5263 19.3915 25.7045 19.2069 25.8891L20.607 27.2892ZM17.6321 33.6647C17.8431 31.2657 18.8907 29.0055 20.607 27.2892L19.2069 25.8891C17.1603 27.9357 15.9113 30.6306 15.6597 33.4912L17.6321 33.6647ZM9.29614 35.5568H15.6125V33.5768H9.29614V35.5568ZM13.3405 20.0227C9.72893 23.6343 7.59914 28.4506 7.3424 33.5272L9.3199 33.6272C9.55191 29.0394 11.4767 24.6866 14.7406 21.4228L13.3405 20.0227ZM9.29614 33.5768C9.29406 33.5768 9.29832 33.5767 9.30377 33.5822C9.30674 33.5852 9.31124 33.591 9.31495 33.6005C9.31906 33.6109 9.3202 33.621 9.3199 33.6272L7.3424 33.5272C7.28451 34.672 8.21662 35.5568 9.29614 35.5568V33.5768ZM21.4353 24.758C22.0566 25.3793 22.9712 25.4875 23.707 25.1607L22.9033 23.3511C22.8799 23.3615 22.8586 23.3625 22.8451 23.3604C22.8389 23.3594 22.8361 23.3582 22.8354 23.3578C22.8351 23.3577 22.835 23.3576 22.8354 23.3578C22.8354 23.3579 22.8357 23.3581 22.8354 23.3578L21.4353 24.758ZM17.0902 17.0583C15.9862 17.739 15.9033 19.2259 16.7591 20.0818L18.1592 18.6817C18.1569 18.6794 18.1583 18.6802 18.1595 18.6837C18.1604 18.6862 18.1611 18.6895 18.1606 18.6944C18.1601 18.6995 18.1581 18.7087 18.1512 18.7201C18.1435 18.7328 18.134 18.741 18.1292 18.7438L17.0902 17.0583ZM32.7118 23.2615C32.7118 23.2615 32.7119 23.2613 32.7122 23.2611C32.7126 23.261 32.7125 23.2609 32.7122 23.2611C32.7115 23.2615 32.7084 23.2629 32.7024 23.2639C32.6893 23.2662 32.6686 23.2655 32.6455 23.2557L31.8773 25.0807C32.6068 25.3877 33.5016 25.2718 34.1119 24.6615L32.7118 23.2615ZM15.6597 33.4912C15.6567 33.5247 15.6416 33.5517 15.6257 33.5672C15.6185 33.5742 15.6133 33.5764 15.6125 33.5768C15.6121 33.5769 15.6125 33.5769 15.613 33.5768C15.6136 33.5767 15.6136 33.5768 15.6125 33.5768V35.5568C16.7259 35.5568 17.5441 34.6654 17.6321 33.6647L15.6597 33.4912ZM38.1372 33.6647C38.2252 34.6654 39.0434 35.5568 40.1568 35.5568V33.5768C40.1557 33.5768 40.1557 33.5767 40.1562 33.5768C40.1568 33.5769 40.1572 33.5769 40.1568 33.5768C40.156 33.5764 40.1508 33.5742 40.1436 33.5672C40.1276 33.5517 40.1126 33.5247 40.1096 33.4912L38.1372 33.6647ZM19.8199 25.2427C19.8213 25.2441 19.8213 25.2444 19.8209 25.2437C19.8207 25.2432 19.8205 25.2431 19.8209 25.2437C19.8213 25.2448 19.8232 25.2514 19.8223 25.2647C19.8203 25.2945 19.8051 25.3295 19.7762 25.3548L21.0845 26.8411C21.9216 26.1042 22.1045 24.7272 21.22 23.8426L19.8199 25.2427ZM34.3787 23.6946C33.482 24.5914 33.6832 25.9889 34.5436 26.7191L35.8248 25.2094C35.795 25.1842 35.7788 25.1486 35.7765 25.1176C35.7754 25.1038 35.7776 25.0966 35.778 25.0955C35.7782 25.0949 35.7781 25.0952 35.7777 25.0959C35.7772 25.0966 35.7773 25.0963 35.7788 25.0948L34.3787 23.6946ZM41.494 19.1444C40.7016 18.4451 39.5377 18.5356 38.831 19.2424L40.2311 20.6424C40.2325 20.641 40.2304 20.6437 40.2234 20.644C40.2197 20.6442 40.2133 20.6438 40.2051 20.6409C40.1962 20.6379 40.1886 20.6332 40.1839 20.629L41.494 19.1444ZM38.8122 19.9612C39.6744 19.099 39.5824 17.598 38.461 16.9258L37.4429 18.624C37.4383 18.6212 37.4284 18.6131 37.4205 18.6001C37.4134 18.5887 37.4113 18.5793 37.4107 18.5741C37.4102 18.5692 37.4109 18.5657 37.4118 18.5632C37.413 18.5596 37.4144 18.5588 37.4121 18.5611L38.8122 19.9612ZM15.4177 20.7788C15.4131 20.783 15.4055 20.7879 15.3964 20.7911C15.388 20.794 15.3816 20.7944 15.3778 20.7943C15.3708 20.794 15.3685 20.7914 15.37 20.7928L16.7701 19.3927C16.0573 18.6799 14.8807 18.595 14.0897 19.3102L15.4177 20.7788ZM46.4494 33.6272C46.4491 33.621 46.4502 33.6109 46.4543 33.6005C46.458 33.591 46.4626 33.5852 46.4655 33.5822C46.471 33.5767 46.4752 33.5768 46.4731 33.5768V35.5568C47.5527 35.5568 48.4848 34.672 48.4269 33.5272L46.4494 33.6272Z" fill="white"/>
</g>
<path d="M23.3516 31.523L27.0325 34.3793C27.2296 34.5322 27.5097 34.5146 27.686 34.3382L33.64 28.3843" stroke="#FABDB2" stroke-width="3" stroke-linecap="round"/>
</svg>
