<svg width="138" height="97" viewBox="0 0 138 97" fill="none" xmlns="http://www.w3.org/2000/svg">
<rect x="1" y="16.252" width="76.5341" height="76.9318" rx="3.5" fill="#E5ECFF" stroke="#91A3DB"/>
<rect x="0.705296" width="47.79" height="47.79" rx="2.5" transform="matrix(0.705296 -0.708913 0.705296 0.708913 51.6678 40.709)" fill="#7A8FCD" stroke="#91A3DB"/>
<rect x="95.0303" y="96.5" width="41.2821" height="41.0664" rx="2.5" transform="rotate(-90 95.0303 96.5)" fill="#F89C8C" stroke="#91A3DB"/>
<path d="M48.3035 9.4694L52.3334 6.24048C52.8271 5.84493 52.834 5.09613 52.3478 4.69145L48.3426 1.3582C47.6925 0.817161 46.7062 1.27725 46.703 2.12301L46.6782 8.68518C46.6751 9.5258 47.6475 9.99502 48.3035 9.4694Z" fill="#F89C8C" stroke="#91A3DB"/>
<path d="M128.017 34.0235L131.295 38.0261C131.698 38.5187 132.453 38.5137 132.85 38.016L136.106 33.9348C136.632 33.2754 136.156 32.3012 135.312 32.3113L128.778 32.3899C127.94 32.4 127.485 33.375 128.017 34.0235Z" fill="#F89C8C" stroke="#91A3DB"/>
<rect x="-0.498111" y="-0.501901" width="10.4815" height="3.14531" rx="0.5" transform="matrix(-0.999993 -0.00380885 0.00377007 -0.999993 44.8055 6.45231)" fill="#F89C8C" stroke="#91A3DB"/>
<rect x="0.494012" y="-0.505978" width="10.5867" height="3.12416" rx="0.5" transform="matrix(-0.0119044 -0.999929 0.999928 -0.0120268 130.993 31.5151)" fill="#F89C8C" stroke="#91A3DB"/>
</svg>
