<svg width="353" height="127" viewBox="0 0 353 127" fill="none" xmlns="http://www.w3.org/2000/svg">
<path d="M12.9707 25.3414L12.9707 101.661C12.9707 107.883 18.0152 112.928 24.2378 112.928L328.761 112.928C334.984 112.928 340.028 107.883 340.028 101.661V25.3414C340.028 19.1187 334.984 14.0743 328.761 14.0743L24.2378 14.0743C18.0152 14.0743 12.9707 19.1187 12.9707 25.3414Z" fill="white"/>
<path d="M117.894 89.7214V65.0996H126.423C127.522 65.0996 128.559 65.2862 129.534 65.6526C130.509 66.019 131.359 66.5374 132.098 67.201C132.831 67.8645 133.412 68.6595 133.833 69.5926C134.255 70.5189 134.469 71.5488 134.469 72.6686C134.469 73.7884 134.255 74.7838 133.833 75.7101C133.412 76.6363 132.831 77.4381 132.098 78.1017C131.366 78.7653 130.509 79.2838 129.534 79.6501C128.559 80.0165 127.522 80.2031 126.423 80.2031H121.778V89.7283H117.894V89.7214ZM126.527 76.4842C127.17 76.4842 127.744 76.3736 128.248 76.1594C128.753 75.9451 129.175 75.6479 129.52 75.2815C129.866 74.9151 130.128 74.5004 130.308 74.0442C130.495 73.588 130.585 73.1248 130.585 72.6686C130.585 72.1848 130.495 71.7147 130.308 71.2585C130.122 70.8023 129.859 70.3945 129.52 70.035C129.175 69.6825 128.753 69.3853 128.248 69.1572C127.744 68.9291 127.17 68.8115 126.527 68.8115H121.778V76.4773H126.527V76.4842Z" fill="#5F6368"/>
<path d="M147.279 87.6551H147.072C146.567 88.3186 145.91 88.92 145.108 89.4592C144.307 89.9983 143.284 90.2679 142.046 90.2679C141.155 90.2679 140.318 90.1228 139.537 89.8394C138.756 89.556 138.079 89.155 137.505 88.6366C136.931 88.1182 136.482 87.5168 136.15 86.8118C135.818 86.1136 135.652 85.3394 135.652 84.4892C135.652 83.5975 135.832 82.7957 136.185 82.0837C136.537 81.3717 137.035 80.7773 137.664 80.2934C138.293 79.8095 139.046 79.4363 139.917 79.1736C140.788 78.9109 141.728 78.7796 142.738 78.7796C143.857 78.7796 144.797 78.8902 145.558 79.1045C146.311 79.3257 146.885 79.5261 147.279 79.7059V79.0492C147.279 78.5446 147.168 78.0745 146.954 77.6391C146.733 77.2036 146.436 76.8303 146.062 76.5193C145.689 76.2082 145.254 75.9663 144.77 75.8004C144.286 75.6276 143.781 75.5446 143.256 75.5446C142.406 75.5446 141.645 75.7105 140.968 76.0423C140.291 76.3741 139.689 76.9064 139.164 77.6391L136.136 75.6414C136.938 74.5423 137.933 73.7129 139.129 73.146C140.318 72.5861 141.673 72.3027 143.187 72.3027C145.682 72.3027 147.618 72.9248 148.979 74.1622C150.341 75.3995 151.025 77.169 151.025 79.457V89.7011H147.279V87.6412V87.6551ZM147.279 82.7058C146.774 82.4086 146.214 82.1667 145.592 81.9869C144.97 81.8003 144.265 81.7104 143.463 81.7104C142.274 81.7104 141.32 81.9869 140.608 82.533C139.897 83.086 139.544 83.7496 139.544 84.5307C139.544 84.9454 139.634 85.3049 139.82 85.6159C140.007 85.927 140.235 86.1966 140.526 86.4247C140.809 86.6528 141.148 86.8256 141.521 86.9431C141.901 87.0606 142.281 87.1159 142.675 87.1159C143.297 87.1159 143.885 86.9984 144.445 86.7565C145.005 86.5145 145.496 86.1966 145.903 85.7956C146.318 85.3947 146.65 84.9316 146.899 84.4063C147.148 83.8809 147.279 83.321 147.279 82.7196V82.7058Z" fill="#5F6368"/>
<path d="M158.04 75.6897H158.247C158.704 74.7289 159.402 73.9824 160.328 73.4571C161.254 72.9317 162.284 72.669 163.404 72.669C163.77 72.669 164.04 72.6829 164.213 72.7036C164.386 72.7243 164.565 72.7589 164.745 72.8073V76.6575C164.489 76.5676 164.247 76.5054 164.005 76.4708C163.763 76.4363 163.452 76.4224 163.058 76.4224C161.614 76.4224 160.452 76.8648 159.568 77.7496C158.683 78.6344 158.24 79.7957 158.24 81.2404V90.0121H154.425V73.1598H158.033V75.7036L158.04 75.6897ZM169.902 76.2427H166.943V72.8695H169.902V67.7129H173.717V72.8695H177.878V76.2427H173.717V83.9431C173.717 84.3647 173.766 84.7587 173.855 85.1113C173.945 85.4638 174.084 85.761 174.27 85.9961C174.657 86.4454 175.155 86.6665 175.749 86.6665C176.116 86.6665 176.399 86.6389 176.607 86.5836C176.814 86.5283 177.028 86.4384 177.256 86.3278L178.424 89.7011C177.941 89.8877 177.436 90.0259 176.911 90.1296C176.385 90.2333 175.784 90.2817 175.12 90.2817C174.319 90.2817 173.607 90.1504 172.991 89.8946C172.376 89.6389 171.83 89.2863 171.374 88.8439C170.385 87.8347 169.895 86.473 169.895 84.738V76.2496L169.902 76.2427Z" fill="#5F6368"/>
<path d="M184.197 75.1425H184.404C184.909 74.3407 185.628 73.6702 186.554 73.131C187.48 72.5919 188.531 72.3223 189.699 72.3223C191.828 72.3223 193.425 72.9582 194.483 74.2301C195.533 75.5019 196.066 77.1955 196.066 79.3037V89.7207H192.25V79.8153C192.25 78.3498 191.911 77.3199 191.234 76.7393C190.556 76.1517 189.672 75.8614 188.566 75.8614C187.902 75.8614 187.315 75.9996 186.81 76.2761C186.305 76.5526 185.87 76.9259 185.504 77.3959C185.137 77.866 184.861 78.4051 184.681 79.0134C184.494 79.6217 184.404 80.2576 184.404 80.9212V89.7276H180.589V72.8753H184.197V75.1425Z" fill="#5F6368"/>
<path d="M214.977 85.6986C214.265 87.005 213.256 88.0971 211.949 88.9681C210.643 89.8391 209.039 90.2745 207.139 90.2745C205.88 90.2745 204.712 90.0533 203.648 89.604C202.583 89.1547 201.657 88.5326 200.883 87.7308C200.102 86.929 199.493 85.982 199.058 84.8967C198.622 83.8115 198.408 82.6087 198.408 81.3023C198.408 80.0857 198.616 78.9383 199.03 77.8461C199.445 76.7609 200.019 75.807 200.765 74.9913C201.512 74.1757 202.41 73.5328 203.461 73.049C204.512 72.5651 205.687 72.3301 206.966 72.3301C208.244 72.3301 209.433 72.5513 210.456 72.9868C211.479 73.4222 212.343 74.0305 213.055 74.8116C213.767 75.5927 214.314 76.5328 214.687 77.6318C215.06 78.7309 215.254 79.9337 215.254 81.2401V81.5512C215.233 81.6687 215.219 81.7723 215.219 81.8622C215.198 81.9521 215.184 82.0488 215.184 82.1387H202.224C202.293 82.9405 202.487 83.6387 202.811 84.2331C203.129 84.8276 203.53 85.3253 204 85.7124C204.47 86.0995 204.989 86.3898 205.562 86.5695C206.136 86.7561 206.696 86.846 207.249 86.846C208.348 86.846 209.254 86.5833 209.966 86.058C210.678 85.5327 211.258 84.876 211.721 84.0949L214.991 85.7124L214.977 85.6986ZM211.438 79.201C211.39 78.8553 211.286 78.4752 211.113 78.0466C210.94 77.6249 210.678 77.2309 210.325 76.8784C209.973 76.5259 209.509 76.2217 208.95 75.966C208.39 75.7171 207.705 75.5858 206.903 75.5858C205.804 75.5858 204.857 75.9107 204.069 76.5674C203.281 77.224 202.742 78.095 202.473 79.201H211.445H211.438Z" fill="#5F6368"/>
<path d="M217.777 72.8685H221.386V75.4122H221.593C221.8 74.9768 222.077 74.5689 222.436 74.1888C222.796 73.8086 223.19 73.4906 223.639 73.221C224.088 72.9584 224.558 72.7372 225.049 72.5644C225.54 72.3915 226.017 72.3086 226.473 72.3086C227.026 72.3086 227.496 72.3639 227.883 72.4676C228.27 72.5713 228.63 72.7164 228.948 72.8961L227.849 76.3661C227.593 76.2486 227.316 76.1657 227.005 76.1104C226.694 76.0551 226.321 76.0274 225.886 76.0274C225.263 76.0274 224.697 76.1519 224.185 76.4076C223.667 76.6634 223.217 77.009 222.823 77.4445C222.436 77.8799 222.132 78.3984 221.911 78.9997C221.69 79.6011 221.586 80.2301 221.586 80.9006V89.7139H217.771V72.8616L217.777 72.8685Z" fill="#5F6368"/>
<path d="M135.913 42.2465C135.913 44.8456 135.146 46.9124 133.604 48.4538C131.876 50.2856 129.595 51.2049 126.775 51.2049C123.955 51.2049 121.791 50.2718 119.918 48.3985C118.051 46.5322 117.111 44.2304 117.111 41.4931C117.111 38.7558 118.044 36.454 119.918 34.5877C121.784 32.7213 124.072 31.7812 126.775 31.7812C128.143 31.7812 129.429 32.0232 130.646 32.507C131.855 32.9909 132.851 33.6752 133.632 34.56L131.918 36.2743C131.344 35.583 130.604 35.0439 129.699 34.6499C128.793 34.2628 127.819 34.0623 126.775 34.0623C124.749 34.0623 123.035 34.7605 121.632 36.1637C120.25 37.5807 119.558 39.3572 119.558 41.4862C119.558 43.6152 120.25 45.3917 121.632 46.8087C123.035 48.2119 124.749 48.91 126.775 48.91C128.627 48.91 130.169 48.3916 131.399 47.3548C132.63 46.3179 133.335 44.8871 133.528 43.0691H126.775V40.8364H135.782C135.865 41.3203 135.913 41.7903 135.913 42.2396V42.2465Z" fill="#5F6368"/>
<path d="M137.552 44.4245C137.552 42.4683 138.167 40.8508 139.397 39.572C140.642 38.2932 142.211 37.6504 144.098 37.6504C145.985 37.6504 147.54 38.2932 148.771 39.572C150.015 40.8508 150.637 42.4683 150.637 44.4245C150.637 46.3807 150.015 48.0189 148.771 49.277C147.54 50.5557 145.985 51.1986 144.098 51.1986C142.211 51.1986 140.642 50.5557 139.397 49.277C138.167 47.9982 137.552 46.3807 137.552 44.4245ZM139.943 44.4245C139.943 45.7931 140.344 46.8991 141.139 47.7493C141.934 48.5995 142.923 49.0212 144.098 49.0212C145.273 49.0212 146.261 48.5995 147.056 47.7493C147.851 46.8991 148.252 45.7931 148.252 44.4245C148.252 43.0558 147.851 41.9775 147.056 41.1273C146.241 40.2633 145.259 39.8278 144.098 39.8278C142.936 39.8278 141.955 40.2633 141.139 41.1273C140.344 41.9775 139.943 43.0766 139.943 44.4245Z" fill="#5F6368"/>
<path d="M152.088 44.4245C152.088 42.4683 152.703 40.8508 153.933 39.572C155.178 38.2932 156.747 37.6504 158.634 37.6504C160.521 37.6504 162.076 38.2932 163.307 39.572C164.551 40.8508 165.173 42.4683 165.173 44.4245C165.173 46.3807 164.551 48.0189 163.307 49.277C162.076 50.5557 160.521 51.1986 158.634 51.1986C156.747 51.1986 155.178 50.5557 153.933 49.277C152.703 47.9982 152.088 46.3807 152.088 44.4245ZM154.48 44.4245C154.48 45.7931 154.88 46.8991 155.675 47.7493C156.47 48.5995 157.459 49.0212 158.634 49.0212C159.809 49.0212 160.797 48.5995 161.592 47.7493C162.387 46.8991 162.788 45.7931 162.788 44.4245C162.788 43.0558 162.387 41.9775 161.592 41.1273C160.777 40.2633 159.795 39.8278 158.634 39.8278C157.473 39.8278 156.491 40.2633 155.675 41.1273C154.88 41.9775 154.48 43.0766 154.48 44.4245Z" fill="#5F6368"/>
<path d="M172.99 56.8114C172.278 56.8114 171.615 56.7216 170.993 56.5418C170.37 56.3621 169.804 56.1064 169.292 55.7746C168.781 55.4428 168.345 55.0557 167.979 54.6064C167.612 54.1571 167.336 53.6525 167.149 53.0995L169.41 52.1663C169.672 52.9129 170.122 53.5073 170.758 53.9566C171.4 54.4059 172.14 54.634 172.99 54.634C174.29 54.634 175.299 54.2469 176.025 53.4658C176.751 52.6847 177.117 51.6133 177.117 50.2447V49.0212H177.013C176.564 49.6986 175.956 50.2309 175.181 50.618C174.414 51.005 173.578 51.2055 172.679 51.2055C171.02 51.2055 169.589 50.5557 168.394 49.2562C167.218 47.9221 166.631 46.3116 166.631 44.4245C166.631 42.5374 167.218 40.9338 168.394 39.6204C169.589 38.3071 171.013 37.6504 172.679 37.6504C173.578 37.6504 174.414 37.8439 175.181 38.2379C175.949 38.625 176.564 39.1573 177.013 39.8347H177.117V38.072H179.405V50.2516C179.405 52.2907 178.824 53.8944 177.663 55.0557C176.488 56.2308 174.926 56.8183 172.99 56.8183V56.8114ZM173.066 49.0212C174.241 49.0212 175.202 48.5996 175.949 47.7493C176.73 46.8991 177.117 45.7931 177.117 44.4245C177.117 43.0558 176.73 41.9913 175.949 41.1273C175.188 40.2633 174.228 39.8278 173.066 39.8278C171.905 39.8278 170.965 40.2633 170.184 41.1273C169.403 41.9913 169.016 43.0904 169.016 44.4245C169.016 45.7586 169.403 46.8715 170.184 47.7217C170.965 48.5857 171.926 49.0212 173.066 49.0212Z" fill="#5F6368"/>
<path d="M184.7 32.1953V50.7826H182.309V32.1953H184.7Z" fill="#5F6368"/>
<path d="M193.188 51.2045C191.322 51.2045 189.781 50.5616 188.564 49.2828C187.354 48.004 186.746 46.3865 186.746 44.4304C186.746 42.4742 187.334 40.8774 188.509 39.5917C189.684 38.2991 191.191 37.6562 193.029 37.6562C194.868 37.6562 196.416 38.2645 197.536 39.488C198.649 40.7115 199.209 42.4189 199.209 44.617L199.181 44.8797H189.186C189.221 46.1239 189.635 47.1331 190.43 47.8934C191.225 48.6538 192.179 49.034 193.285 49.034C194.806 49.034 196.002 48.2736 196.866 46.746L198.995 47.7828C198.421 48.8543 197.633 49.6976 196.617 50.2989C195.608 50.9072 194.46 51.2045 193.175 51.2045H193.188ZM189.373 42.8958H196.665C196.596 42.011 196.237 41.2852 195.587 40.7046C194.937 40.124 194.066 39.8336 192.981 39.8336C192.082 39.8336 191.308 40.1101 190.658 40.6631C190.009 41.2161 189.58 41.9626 189.373 42.8958Z" fill="#5F6368"/>
<path d="M215.751 51.2049C213 51.2049 210.698 50.2787 208.846 48.4262C207.014 46.5737 206.095 44.2649 206.095 41.4931C206.095 38.7212 207.014 36.4194 208.846 34.5877C210.678 32.7213 212.979 31.7812 215.751 31.7812C218.523 31.7812 220.832 32.7905 222.581 34.8158L220.866 36.4747C219.532 34.8642 217.832 34.0623 215.751 34.0623C213.671 34.0623 211.97 34.7536 210.588 36.136C209.219 37.5047 208.535 39.2881 208.535 41.4862C208.535 43.6843 209.219 45.4677 210.588 46.8363C211.97 48.2188 213.691 48.91 215.751 48.91C217.915 48.91 219.795 48.0045 221.385 46.1866L223.127 47.8732C222.242 48.9308 221.164 49.7464 219.885 50.3271C218.606 50.9077 217.231 51.198 215.758 51.198L215.751 51.2049Z" fill="#5F6368"/>
<path d="M227.641 32.1953V50.7826H225.249V32.1953H227.641Z" fill="#5F6368"/>
<path d="M229.693 44.4245C229.693 42.4683 230.309 40.8508 231.539 39.572C232.783 38.2932 234.352 37.6504 236.239 37.6504C238.126 37.6504 239.682 38.2932 240.912 39.572C242.156 40.8508 242.778 42.4683 242.778 44.4245C242.778 46.3807 242.156 48.0189 240.912 49.277C239.682 50.5557 238.126 51.1986 236.239 51.1986C234.352 51.1986 232.783 50.5557 231.539 49.277C230.309 47.9982 229.693 46.3807 229.693 44.4245ZM232.085 44.4245C232.085 45.7931 232.486 46.8991 233.281 47.7493C234.076 48.5995 235.064 49.0212 236.239 49.0212C237.414 49.0212 238.403 48.5995 239.198 47.7493C239.993 46.8991 240.394 45.7931 240.394 44.4245C240.394 43.0558 239.993 41.9775 239.198 41.1273C238.382 40.2633 237.401 39.8278 236.239 39.8278C235.078 39.8278 234.097 40.2633 233.281 41.1273C232.486 41.9775 232.085 43.0766 232.085 44.4245Z" fill="#5F6368"/>
<path d="M255.988 50.791H253.7V49.0283H253.596C253.23 49.6504 252.677 50.1689 251.923 50.5836C251.17 50.9984 250.389 51.2057 249.573 51.2057C248.018 51.2057 246.815 50.7633 245.979 49.8716C245.142 48.98 244.721 47.715 244.721 46.0699V38.0723H247.112V45.9109C247.168 47.9846 248.211 49.0283 250.251 49.0283C251.204 49.0283 251.999 48.6412 252.642 47.874C253.285 47.1067 253.603 46.1804 253.603 45.109V38.0723H255.995V50.791H255.988Z" fill="#5F6368"/>
<path d="M264.088 51.2052C262.429 51.2052 260.999 50.5485 259.803 49.2352C258.628 47.9011 258.04 46.3043 258.04 44.4311C258.04 42.5578 258.628 40.9611 259.803 39.627C260.999 38.3136 262.422 37.657 264.088 37.657C265.022 37.657 265.872 37.8574 266.646 38.2514C267.413 38.6523 268.008 39.1777 268.422 39.8344H268.526L268.422 38.0717V32.2031H270.814V50.7904H268.526V49.0278H268.422C268.008 49.6845 267.413 50.2167 266.646 50.6107C265.879 51.0047 265.022 51.2052 264.088 51.2052ZM264.475 49.0209C265.651 49.0209 266.611 48.5992 267.358 47.749C268.139 46.8988 268.526 45.7928 268.526 44.4242C268.526 43.0555 268.139 41.991 267.358 41.127C266.598 40.2629 265.637 39.8274 264.475 39.8274C263.314 39.8274 262.374 40.2629 261.593 41.127C260.812 41.991 260.425 43.0901 260.425 44.4242C260.425 45.7582 260.812 46.8711 261.593 47.7213C262.374 48.5854 263.335 49.0209 264.475 49.0209Z" fill="#5F6368"/>
<path d="M70.6404 52.0016L72.7279 52.0431L78.3892 46.3819L78.6656 43.9833C74.1657 39.9811 68.2418 37.541 61.758 37.541C50.0209 37.541 40.1155 45.5248 37.1777 56.3495C37.7998 55.9209 39.1132 56.2389 39.1132 56.2389L50.4356 54.3795C50.4356 54.3795 51.0232 53.4187 51.3135 53.474C53.9056 50.6399 57.6245 48.8565 61.758 48.8565C65.1174 48.8565 68.2073 50.0385 70.6404 52.0016Z" fill="#EA4335"/>
<path d="M86.3382 56.3576C85.0249 51.5052 82.3083 47.2264 78.6586 43.9707L70.6334 51.9959C73.8476 54.595 75.9075 58.5627 75.9075 63.0004V64.4174C79.8061 64.4174 82.9788 67.5902 82.9788 71.4888C82.9788 75.3873 79.8061 78.5601 75.9006 78.5601H61.751L60.334 79.984V88.4724L61.751 89.8825H75.9006C86.041 89.8825 94.2944 81.6292 94.2944 71.4888C94.2944 65.2193 91.1354 59.6756 86.3313 56.3507L86.3382 56.3576Z" fill="#4285F4"/>
<path d="M47.6083 89.8822H61.744V78.5598H47.6083C46.5714 78.5598 45.583 78.3317 44.6913 77.9238L42.6521 78.5459L36.984 84.2141L36.4863 86.1288C39.5761 88.479 43.4263 89.8822 47.6014 89.8822H47.6083Z" fill="#34A853"/>
<path d="M47.6086 53.0938C37.4682 53.0938 29.2148 61.3471 29.2148 71.4875C29.2148 77.4598 32.0766 82.7754 36.5005 86.1348L44.7054 77.9298C42.2515 76.8169 40.5373 74.3492 40.5373 71.4875C40.5373 67.5889 43.71 64.4162 47.6086 64.4162C50.4772 64.4162 52.9449 66.1304 54.0509 68.5843L62.2559 60.3794C58.8965 55.9555 53.5809 53.0938 47.6086 53.0938Z" fill="#FBBC05"/>
</svg>
