<svg width="106" height="46" viewBox="0 0 106 46" fill="none" xmlns="http://www.w3.org/2000/svg">
<mask id="mask0_1494_4784" style="mask-type:luminance" maskUnits="userSpaceOnUse" x="0" y="0" width="87" height="46">
<path d="M86.919 0.528259H0.949219V45.5283H86.919V0.528259Z" fill="white"/>
</mask>
<g mask="url(#mask0_1494_4784)">
<mask id="mask1_1494_4784" style="mask-type:luminance" maskUnits="userSpaceOnUse" x="0" y="0" width="87" height="46">
<path d="M86.919 0.528259H0.949219V45.5283H86.919V0.528259Z" fill="white"/>
</mask>
<g mask="url(#mask1_1494_4784)">
<path d="M33.4014 32.8395L22.7969 26.7222L30.4449 13.4855C30.4952 13.3996 30.5846 13.2437 30.4449 13.0033C30.3045 12.7621 30.1258 12.7621 30.0285 12.7621H14.7285V0.528259H30.0244C34.6265 0.528259 38.7463 2.90653 41.0487 6.88598C43.3524 10.8695 43.3524 15.6227 41.0487 19.6021L33.4014 32.8395Z" fill="#008052"/>
<path d="M28.8561 45.5278H13.7019C9.09921 45.5278 4.97939 43.1498 2.67701 39.1696C0.373288 35.1868 0.373288 30.4336 2.67701 26.4542L10.3243 13.2168L20.9288 19.3341L13.2808 32.5708C13.2305 32.6567 13.1411 32.8119 13.2808 33.053C13.4212 33.2941 13.5999 33.2942 13.7013 33.2942H28.8561V45.5278Z" fill="#90BCD1"/>
<path d="M28.8561 45.5283H13.7019C9.09921 45.5283 4.97939 43.1505 2.67701 39.1703C0.373288 35.1868 0.373288 30.4337 2.67701 26.4542L10.3243 13.2175L20.9288 19.3341L13.2808 32.5722C13.2305 32.6574 13.1411 32.8126 13.2808 33.0537C13.4212 33.2948 13.5999 33.2948 13.7013 33.2948H28.8561V45.5283Z" fill="#73B2CF"/>
<path d="M57.6307 19.5356C57.8371 19.5356 57.9149 19.6646 57.9149 19.8473V20.4182C57.9149 20.6788 57.9419 20.8346 57.6819 21.1953L50.8387 30.6197H58.1474V32.0973H49.0501C48.8438 32.0973 48.7664 31.9919 48.7664 31.8132V31.2181C48.7664 30.9582 48.7397 30.8024 48.9998 30.441L55.7918 21.0166H48.8704V19.5403H57.6307V19.5356ZM71.1336 19.5356H72.9226V30.4377C72.9226 30.9306 72.767 31.2416 72.2731 31.4478L70.9775 31.965C70.3826 32.1981 70.1221 32.2484 69.4756 32.2484H65.5124C64.5277 32.2484 64.0888 32.0657 63.5162 31.4982L62.8435 30.8265C62.1437 30.1267 62.038 29.8661 62.038 28.7042V19.5356H63.8279V28.7539C63.8279 29.1703 63.9052 29.3248 64.2169 29.6357L64.8118 30.2308C65.1505 30.5418 65.2511 30.5921 65.7725 30.5921H69.3751C69.5302 30.5921 69.6858 30.5653 69.8144 30.5143L70.9818 30.0481C71.0863 29.9977 71.137 29.9433 71.137 29.8151V19.5356H71.1336ZM79.4812 26.4502C78.6761 26.3722 78.0571 26.1661 77.6415 25.7778C77.2017 25.3614 76.9688 24.7167 76.9688 23.7065V22.8784C76.9688 21.8441 77.0732 21.5062 77.7734 20.8071L78.4462 20.1347C79.0419 19.5639 79.4812 19.3845 80.469 19.3845H83.1147C84.0209 19.3845 84.4099 19.4624 85.0323 19.8513L86.483 20.7332L85.7832 21.9999L84.0209 21.1959C83.6594 21.0401 83.3984 20.9897 82.9316 20.9897H80.6754C80.1582 20.9897 80.0529 21.0401 79.7151 21.3511L79.0922 21.973C78.7814 22.284 78.7036 22.4391 78.7036 22.8549V23.8153C78.7036 24.487 78.8863 24.7207 79.6093 24.7986L84.3514 25.2372C85.3358 25.3426 85.9075 25.5481 86.3197 25.9639C86.7362 26.3803 86.915 26.9982 86.915 27.8801V28.7082C86.915 29.8742 86.8102 30.1301 86.1095 30.8299L85.4368 31.5022C84.8651 32.0731 84.4258 32.2524 83.4414 32.2524H80.1234C79.2164 32.2524 78.8279 32.1745 78.1784 31.7857L76.7268 30.9038L77.4274 29.6371L79.1898 30.4645C79.5509 30.6197 79.8118 30.6472 80.2786 30.6472H83.208C83.7251 30.6472 83.83 30.5969 84.1687 30.2859L84.7912 29.6639C85.1024 29.353 85.1802 29.1978 85.1802 28.7821V27.8761C85.1802 27.2044 84.9975 26.9707 84.274 26.8928L79.4774 26.4535L79.4812 26.4502Z" fill="#008052"/>
</g>
</g>
</svg>
